<svg width="21" height="21" viewBox="0 0 21 21" fill="none" xmlns="http://www.w3.org/2000/svg">
<path fill-rule="evenodd" clip-rule="evenodd" d="M15.2416 4.9918C15.1305 2.59263 13.1506 0.681683 10.7245 0.681683C8.23885 0.670985 6.2108 2.67117 6.18475 5.15602H5.98142C3.2154 5.15602 0.973633 7.39652 0.973633 10.161V15.677C0.973633 18.4415 3.2154 20.682 5.98142 20.682H15.4658C18.2319 20.682 20.4736 18.4415 20.4736 15.677V10.161C20.4736 7.39652 18.2319 5.15602 15.4658 5.15602H15.2454L15.2416 4.9918ZM13.7465 6.65602V8.23672L13.7534 8.33849C13.803 8.70457 14.1168 8.98672 14.4965 8.98672C14.9107 8.98672 15.2465 8.65093 15.2465 8.23672V6.65602H15.4658C17.4036 6.65602 18.9736 8.22514 18.9736 10.161V15.677C18.9736 17.6129 17.4036 19.182 15.4658 19.182H5.98142C4.04364 19.182 2.47363 17.6129 2.47363 15.677V10.161C2.47363 8.22514 4.04364 6.65602 5.98142 6.65602H6.18454L6.18453 8.23672L6.19138 8.33849C6.24104 8.70457 6.55484 8.98672 6.93453 8.98672C7.34875 8.98672 7.68453 8.65093 7.68453 8.23672V6.65602H13.7465ZM13.7461 5.15602C13.7201 3.50881 12.3771 2.18168 10.7213 2.18168C9.1108 2.17475 7.78923 3.42704 7.69043 5.01047L7.68559 5.15602H13.7461Z" fill="#BFBFBF"/>
</svg>
