<svg width="21" height="21" viewBox="0 0 21 21" fill="none" xmlns="http://www.w3.org/2000/svg">
<path fill-rule="evenodd" clip-rule="evenodd" d="M10.9482 0.931966C7.43661 0.917854 4.1758 2.73873 2.35085 5.73183C0.52567 8.72531 0.403141 12.4544 2.02791 15.5609L2.21173 15.9192C2.28201 16.0509 2.29556 16.193 2.25484 16.3244C1.9923 17.0182 1.76162 17.7674 1.57756 18.5287L1.55801 18.6927C1.55801 19.4581 1.96642 19.984 2.77697 19.966L2.91193 19.9498C3.64824 19.7872 4.37336 19.5777 5.08286 19.3226C5.17691 19.2988 5.33096 19.308 5.46997 19.3649L6.1525 19.7512C6.15404 19.7559 6.15519 19.7595 6.16234 19.7637L6.20814 19.7797C9.8832 21.7121 14.3715 21.179 17.49 18.4396C20.6089 15.6998 21.7102 11.3218 20.2578 7.4356C18.8056 3.54975 15.1018 0.962491 10.9482 0.931966ZM10.6577 2.33075L10.9386 2.32636C14.5133 2.35354 17.7011 4.58034 18.9508 7.92407C20.2003 11.2674 19.2528 15.0338 16.5691 17.3913L16.3489 17.5783C13.7529 19.7098 10.1485 20.1394 7.12295 18.6785L6.83522 18.5343L6.84755 18.5359L6.82935 18.531L6.40703 18.2886C6.25497 18.2027 6.13434 18.1376 6.03711 18.0908C5.57396 17.8998 5.1038 17.8717 4.66159 17.9934L4.24298 18.1372C3.96631 18.2286 3.69398 18.3112 3.42299 18.3858L3.02793 18.489L2.93382 18.8566C3.10445 18.1509 3.3183 17.4564 3.57415 16.7768C3.73878 16.25 3.68844 15.7222 3.44781 15.2719L3.26688 14.9191C1.86653 12.2416 1.97193 9.03363 3.54222 6.45821C5.06364 3.96293 7.7452 2.41408 10.6577 2.33075ZM5.36486 10.9319C5.36486 10.3017 5.87612 9.7913 6.50622 9.7913C7.13632 9.7913 7.64758 10.3017 7.64758 10.9319C7.64758 11.5621 7.13632 12.0726 6.50622 12.0726C5.87612 12.0726 5.36486 11.5621 5.36486 10.9319ZM9.80173 10.9319C9.80173 10.3017 10.313 9.7913 10.9431 9.7913C11.5732 9.7913 12.0845 10.3017 12.0845 10.9319C12.0845 11.5621 11.5732 12.0726 10.9431 12.0726C10.313 12.0726 9.80173 11.5621 9.80173 10.9319ZM15.38 9.7913C14.7499 9.7913 14.2386 10.3017 14.2386 10.9319C14.2386 11.5621 14.7499 12.0726 15.38 12.0726C16.0101 12.0726 16.5213 11.5621 16.5213 10.9319C16.5213 10.3017 16.0101 9.7913 15.38 9.7913Z" fill="#BFBFBF"/>
</svg>
