<svg width="16" height="11" viewBox="0 0 16 11" fill="none" xmlns="http://www.w3.org/2000/svg">
<path d="M11.3959 7.24132L16 7.2256L12.8117 1.02047C12.8117 1.02047 12.2871 0.174858 11.2433 0.166626C11.2371 0.166626 11.2308 0.166626 11.2245 0.166626C10.1947 0.166626 9.78923 0.849101 9.78923 0.849101L8.07803 3.39566L6.49434 0.888013C6.03937 0.223498 5.32242 0.166626 5.09249 0.166626C5.04581 0.166626 5.01864 0.168871 5.01864 0.168871C3.95402 0.168871 3.43703 0.903729 3.43703 0.903729L0 7.21288H4.77408C5.12594 7.70827 5.41508 8.11312 5.42135 8.1221L5.42275 8.1206L6.8232 10.2331C7.28305 10.8123 7.90176 10.8333 7.98955 10.8333C7.99651 10.8333 8 10.8333 8 10.8333C8.92597 10.8333 9.36701 10.2638 9.36701 10.2638L11.2963 7.38799C11.2963 7.38799 11.3332 7.33261 11.3959 7.24132ZM11.7798 6.67483C12.0334 6.30142 12.3337 5.85916 12.5442 5.5501C12.8772 5.06069 13.2959 5.08688 13.3092 5.08838L14.3013 5.08988L15.1096 6.66361L11.7798 6.67483ZM10.2156 1.17911L10.2191 1.17762L10.2303 1.15741C10.2672 1.10503 10.5536 0.730866 11.2252 0.730866H11.2406C11.9199 0.736104 12.2989 1.22551 12.3679 1.32204L12.7755 2.11527H12.5184C12.402 2.10854 11.7715 2.10554 11.2935 2.80673C10.8671 3.43383 9.52029 5.31811 9.50357 5.34131L8.02299 7.48527L8.00906 7.50697C8.00557 7.51296 7.66208 8.10564 7.12768 8.10564H6.06027L5.45689 7.19492C6.19962 7.15077 6.64205 6.45183 6.70824 6.34108L8.0641 4.37747L8.06549 4.38046L8.50514 3.72567L10.2156 1.17911ZM5.02561 6.63517C4.65354 6.11059 4.25152 5.54112 4.05156 5.24702C3.57429 4.54584 2.94304 4.54809 2.82669 4.55557H2.05678L2.91099 2.98707H4.14771L4.1707 2.98632C4.18812 2.98558 4.60617 2.95789 4.93921 3.4473C5.2625 3.92248 6.10625 5.10858 6.51106 5.67656L6.27765 6.01481L6.26372 6.03651C6.26023 6.0425 5.91674 6.63517 5.38234 6.63517H5.02561ZM3.86901 1.23C3.95053 1.13272 4.32677 0.733858 5.01864 0.733858L5.03536 0.734607L5.05696 0.732362C5.06184 0.732362 5.07438 0.731613 5.09249 0.731613C5.24229 0.731613 5.753 0.766785 6.06514 1.21429L7.64257 3.7122L7.74987 3.88207L6.83714 5.20362C6.40934 4.60271 5.66243 3.55131 5.36422 3.11354C4.88695 2.41236 4.2557 2.4146 4.13935 2.42209H3.21895L3.86901 1.23ZM0.917611 6.64789L1.74952 5.12056H2.83574L2.85874 5.11981C2.87615 5.11906 3.2942 5.09137 3.62724 5.58078C3.78749 5.8165 4.07525 6.22584 4.37415 6.64864H0.917611V6.64789ZM8.95802 9.90686C8.89671 9.97271 8.58805 10.2691 8 10.2691L7.99861 10.2683L7.98537 10.2691C7.93869 10.2683 7.53875 10.2503 7.23637 9.88366L6.43303 8.67212H7.12629C7.91361 8.67212 8.38251 7.92903 8.4501 7.81379L9.92162 5.68255C9.93486 5.66384 11.2858 3.77357 11.7164 3.14123C12.0495 2.65182 12.4675 2.67801 12.4814 2.67951L13.0632 2.68026L14.0108 4.52489H13.3433C13.2277 4.51815 12.5957 4.51516 12.1184 5.21634C11.8391 5.62642 11.1047 6.67708 11.1047 6.67708L10.9479 6.9128L8.95802 9.90686Z" fill="url(#paint0_linear_634_74)"/>
<defs>
<linearGradient id="paint0_linear_634_74" x1="0.470588" y1="5.49996" x2="16.0027" y2="5.61417" gradientUnits="userSpaceOnUse">
<stop offset="0.0560093" stop-color="#2390FA"/>
<stop offset="0.484711" stop-color="#2C9CF2"/>
<stop offset="1" stop-color="#33A9E7"/>
</linearGradient>
</defs>
</svg>
