<svg width="16" height="16" viewBox="0 0 16 16" fill="none" xmlns="http://www.w3.org/2000/svg">
<g clip-path="url(#clip0_258_6571)">
<path d="M6.40004 10.1333C6.40004 9.99186 6.34385 9.8562 6.24383 9.75618C6.14381 9.65617 6.00816 9.59998 5.86671 9.59998C5.72526 9.59998 5.5896 9.65617 5.48958 9.75618C5.38956 9.8562 5.33337 9.99186 5.33337 10.1333C5.33337 11.6037 6.52964 12.8 8.00004 12.8C9.47044 12.8 10.6667 11.6037 10.6667 10.1333C10.6667 9.99186 10.6105 9.8562 10.5105 9.75618C10.4105 9.65617 10.2748 9.59998 10.1334 9.59998C9.99193 9.59998 9.85627 9.65617 9.75625 9.75618C9.65623 9.8562 9.60004 9.99186 9.60004 10.1333C9.60004 11.0154 8.88217 11.7333 8.00004 11.7333C7.11791 11.7333 6.40004 11.0154 6.40004 10.1333Z" fill="white"/>
<path d="M10.1334 3.73336C10.239 3.73359 10.3423 3.70245 10.4301 3.64389C10.518 3.58533 10.5864 3.50198 10.6268 3.40444C10.6672 3.30689 10.6778 3.19954 10.657 3.09601C10.6363 2.99248 10.5853 2.89744 10.5105 2.82296L8.37715 0.689624C8.27707 0.58977 8.14146 0.533691 8.00008 0.533691C7.8587 0.533691 7.7231 0.58977 7.62302 0.689624L5.48968 2.82296C5.44017 2.87247 5.40089 2.93126 5.37409 2.99596C5.34729 3.06065 5.3335 3.13 5.3335 3.20002C5.3335 3.27005 5.34729 3.33939 5.37409 3.40409C5.40089 3.46879 5.44017 3.52757 5.48968 3.57709C5.5392 3.62661 5.59798 3.66589 5.66268 3.69269C5.72738 3.71948 5.79672 3.73328 5.86675 3.73328C5.93678 3.73328 6.00612 3.71948 6.07082 3.69269C6.13551 3.66589 6.1943 3.62661 6.24382 3.57709L7.46675 2.35416V9.60002C7.46675 9.74147 7.52294 9.87713 7.62296 9.97715C7.72298 10.0772 7.85863 10.1334 8.00008 10.1334C8.14153 10.1334 8.27719 10.0772 8.37721 9.97715C8.47723 9.87713 8.53342 9.74147 8.53342 9.60002V2.35416L9.75635 3.57709C9.80581 3.62669 9.86458 3.66603 9.92929 3.69284C9.994 3.71966 10.0634 3.73343 10.1334 3.73336Z" fill="white"/>
<path d="M14.9333 4.80005H10.1333C9.99188 4.80005 9.85622 4.85624 9.7562 4.95626C9.65618 5.05628 9.59999 5.19193 9.59999 5.33338C9.59999 5.47483 9.65618 5.61049 9.7562 5.71051C9.85622 5.81053 9.99188 5.86672 10.1333 5.86672H11.7813C11.893 6.5206 12.2049 7.1237 12.674 7.59276C13.143 8.06182 13.7461 8.37371 14.4 8.48538V11.7819C13.7461 11.8936 13.143 12.2055 12.674 12.6745C12.2049 13.1436 11.893 13.7467 11.7813 14.4006H4.21866C4.10701 13.7466 3.79514 13.1435 3.32608 12.6743C2.85703 12.2052 2.25392 11.8932 1.59999 11.7814V8.48538C2.25388 8.37371 2.85697 8.06182 3.32603 7.59276C3.79509 7.1237 4.10698 6.5206 4.21866 5.86672H5.86666C6.00811 5.86672 6.14376 5.81053 6.24378 5.71051C6.3438 5.61049 6.39999 5.47483 6.39999 5.33338C6.39999 5.19193 6.3438 5.05628 6.24378 4.95626C6.14376 4.85624 6.00811 4.80005 5.86666 4.80005H1.06666C0.92521 4.80005 0.789554 4.85624 0.689535 4.95626C0.589515 5.05628 0.533325 5.19193 0.533325 5.33338V14.9334C0.533325 15.0748 0.589515 15.2105 0.689535 15.3105C0.789554 15.4105 0.92521 15.4667 1.06666 15.4667H14.9333C15.0748 15.4667 15.2104 15.4105 15.3104 15.3105C15.4105 15.2105 15.4667 15.0748 15.4667 14.9334V5.33338C15.4667 5.19193 15.4105 5.05628 15.3104 4.95626C15.2104 4.85624 15.0748 4.80005 14.9333 4.80005ZM12.8757 5.86672H14.4V7.39098C14.0333 7.2954 13.6988 7.10376 13.4309 6.83583C13.1629 6.5679 12.9713 6.23337 12.8757 5.86672ZM3.12426 5.86672C3.02867 6.23337 2.83704 6.5679 2.56911 6.83583C2.30118 7.10376 1.96665 7.2954 1.59999 7.39098V5.86672H3.12426ZM1.59999 12.8758C1.96665 12.9714 2.30118 13.163 2.56911 13.4309C2.83704 13.6989 3.02867 14.0334 3.12426 14.4001H1.59999V12.8758ZM12.8757 14.4001C12.9713 14.0334 13.1629 13.6989 13.4309 13.4309C13.6988 13.163 14.0333 12.9714 14.4 12.8758V14.4001H12.8757Z" fill="white"/>
</g>
<defs>
<clipPath id="clip0_258_6571">
<rect width="16" height="16" fill="white"/>
</clipPath>
</defs>
</svg>
