<svg width="20" height="20" viewBox="0 0 20 20" fill="none" xmlns="http://www.w3.org/2000/svg">
<path fill-rule="evenodd" clip-rule="evenodd" d="M19.4903 9.93179C19.4903 12.4779 18.4789 14.9197 16.6785 16.72C14.8782 18.5204 12.4364 19.5318 9.89028 19.5318C7.3442 19.5318 4.90241 18.5204 3.10206 16.72C1.30171 14.9197 0.290283 12.4779 0.290283 9.93179C0.290283 7.38571 1.30171 4.94391 3.10206 3.14356C4.90241 1.34321 7.3442 0.331787 9.89028 0.331787C12.4364 0.331787 14.8782 1.34321 16.6785 3.14356C18.4789 4.94391 19.4903 7.38571 19.4903 9.93179ZM12.8903 6.93179C12.8903 7.72744 12.5742 8.4905 12.0116 9.05311C11.449 9.61572 10.6859 9.93179 9.89028 9.93179C9.09463 9.93179 8.33157 9.61572 7.76896 9.05311C7.20635 8.4905 6.89028 7.72744 6.89028 6.93179C6.89028 6.13614 7.20635 5.37308 7.76896 4.81047C8.33157 4.24786 9.09463 3.93179 9.89028 3.93179C10.6859 3.93179 11.449 4.24786 12.0116 4.81047C12.5742 5.37308 12.8903 6.13614 12.8903 6.93179ZM9.89028 12.3318C8.77479 12.3308 7.67436 12.5894 6.67609 13.0872C5.67782 13.5849 4.8091 14.3082 4.13868 15.1998C4.86858 15.9986 5.75709 16.6364 6.74744 17.0724C7.7378 17.5084 8.80821 17.7329 9.89028 17.7318C10.9724 17.7329 12.0428 17.5084 13.0331 17.0724C14.0235 16.6364 14.912 15.9986 15.6419 15.1998C14.9715 14.3082 14.1027 13.5849 13.1045 13.0872C12.1062 12.5894 11.0058 12.3308 9.89028 12.3318Z" fill="#BFBFBF"/>
</svg>
